Sweet Sinner – My Mother’s Best Friend #4 720p (2011)

Cover: 
http://imagebb.org/view.php?filename=968d34d3A.jpg

Preview: 
http://imagebb.org/view.php?filename=152Sweet_Sinner_My_Mother.jpg

Info:
Format                           : Windows Media
File size                        : 2.47 GiB
Duration                         : 1h 59mn
Overall bit rate mode            : Constant
Overall bit rate                 : 2 962 Kbps
Maximum Overall bit rate         : 4 162 Kbps
Encoded date                     : UTC 2011-09-28 13:11:14.149

Video
ID                               : 2
Format                           : WMV1
Codec ID                         : WMV1
Codec ID/Info                    : Windows Media Video 7
Description of the codec         : Windows Media Video V7
Duration                         : 1h 59mn
Bit rate mode                    : Constant
Bit rate                         : 4 000 Kbps
Width                            : 1 280 pixels
Height                           : 720 pixels
Display aspect ratio             : 16:9
Frame rate                       : 29.970 fps
Bit depth                        : 8 bits
Bits/(Pixel*Frame)               : 0.145
Stream size                      : 3.33 GiB

Audio
ID                               : 1
Format                           : WMA
Format profile                   : Pro
Codec ID                         : 162
Codec ID/Info                    : Windows Media Audio
Description of the codec         : Windows Media Audio 10 Professional - 128 kbps, 44 kHz, 2 channel 16 bit 1-pass CBR
Duration                         : 1h 59mn
Bit rate mode                    : Constant
Bit rate                         : 128 Kbps
Channel(s)                       : 2 channels
Sampling rate                    : 44.1 KHz
Bit depth                        : 16 bits
Stream size                      : 109 MiB (4%)
